<svg xmlns="http://www.w3.org/2000/svg" width="130" height="70" fill="none" viewBox="0 0 130 70">
  <path fill="#6927DA" d="M16.92 51.96a15.484 15.484 0 0 1-3.44-.52 7.104 7.104 0 0 1-2.76-1.48c-.8-.72-1.427-1.707-1.88-2.96-.427-1.253-.64-2.853-.64-4.8 0-1.893.253-3.533.76-4.92.533-1.387 1.16-2.493 1.88-3.32s1.373-1.333 1.96-1.52l-.2-.76h-.68c-1.227 0-2.2-.387-2.92-1.16-.693-.8-1.053-1.867-1.08-3.2-.027-1.333.32-2.4 1.04-3.2.747-.827 1.733-1.24 2.96-1.24h11c2.88 0 4.96.693 6.24 2.08 1.28 1.36 1.92 3.133 1.92 5.32 0 1.76-.413 3.227-1.24 4.4-.8 1.173-2.013 1.88-3.64 2.12v.6c1.76.08 3.187.693 4.28 1.84 1.12 1.12 1.68 2.787 1.68 5 0 2.4-.693 4.307-2.08 5.72-1.387 1.387-3.667 2.067-6.84 2.04l-6.32-.04ZM15.84 34c0 .587.107.973.32 1.16.213.187.613.28 1.2.28h3.68c1.013 0 1.787-.147 2.32-.44.533-.32.8-.933.8-1.84 0-.933-.267-1.547-.8-1.84-.533-.293-1.307-.44-2.32-.44h-3.68c-.587 0-.987.08-1.2.24-.213.16-.32.547-.32 1.16V34Zm0 8.04c0 .587.107.987.32 1.2.24.213.667.32 1.28.32h4.12c1.04 0 1.84-.187 2.4-.56.56-.373.84-1.04.84-2s-.28-1.613-.84-1.96c-.56-.373-1.36-.56-2.4-.56h-4.12c-.613 0-1.04.093-1.28.28-.213.187-.32.573-.32 1.16v2.12ZM40.222 52c-1.867 0-3.386-.707-4.56-2.12-1.173-1.413-1.773-3.4-1.8-5.96l-.04-9.24c0-1.147.347-2.04 1.04-2.68.72-.667 1.694-1 2.92-1 1.174 0 2.12.333 2.84 1 .72.64 1.08 1.533 1.08 2.68v8.36c0 2 .787 3 2.36 3 .774 0 1.294-.28 1.56-.84.267-.587.4-1.333.4-2.24v-8.28c0-1.04.36-1.907 1.08-2.6.72-.72 1.654-1.08 2.8-1.08 1.2 0 2.12.36 2.76 1.08.667.693 1 1.56 1 2.6V47.8c0 1.28-.293 2.307-.88 3.08-.56.747-1.48 1.12-2.76 1.12-1.253 0-2.24-.373-2.96-1.12-.693-.773-1.04-1.8-1.04-3.08v-.68h-.72c0 1.547-.466 2.747-1.4 3.6-.907.853-2.133 1.28-3.68 1.28Zm22.634 0c-4.853 0-7.28-3.573-7.28-10.72 0-3.093.6-5.56 1.8-7.4 1.2-1.867 3-2.8 5.4-2.8 1.307 0 2.36.267 3.16.8.827.533 1.467 1.267 1.92 2.2.48.907.827 1.96 1.04 3.16l.12-.04V25.08c0-1.093.32-2.013.96-2.76.667-.773 1.627-1.16 2.88-1.16 1.227 0 2.134.387 2.72 1.16.614.747.92 1.693.92 2.84v18c0 .907.067 1.747.2 2.52.16.747.28 1.493.36 2.24.08 1.013-.133 1.893-.64 2.64-.48.72-1.346 1.187-2.6 1.4-1.626.267-2.84-.013-3.64-.84-.773-.827-1.16-2.053-1.16-3.68v-1.48h-.76c0 1.947-.493 3.44-1.48 4.48-.96 1.04-2.266 1.56-3.92 1.56Zm-.6-11.08c0 .827.254 1.44.76 1.84.507.4 1.414.6 2.72.6 1.334 0 2.254-.2 2.76-.6.507-.4.76-1.013.76-1.84 0-.853-.253-1.467-.76-1.84-.48-.4-1.386-.6-2.72-.6-1.333 0-2.253.2-2.76.6-.506.373-.76.987-.76 1.84ZM86.098 52c-4.853 0-7.28-3.573-7.28-10.72 0-3.093.6-5.56 1.8-7.4 1.2-1.867 3-2.8 5.4-2.8 1.307 0 2.36.267 3.16.8.827.533 1.467 1.267 1.92 2.2.48.907.827 1.96 1.04 3.16l.12-.04V25.08c0-1.093.32-2.013.96-2.76.667-.773 1.627-1.16 2.88-1.16 1.227 0 2.134.387 2.72 1.16.614.747.92 1.693.92 2.84v18c0 .907.067 1.747.2 2.52.16.747.28 1.493.36 2.24.08 1.013-.133 1.893-.64 2.64-.48.72-1.346 1.187-2.6 1.4-1.626.267-2.84-.013-3.64-.84-.773-.827-1.16-2.053-1.16-3.68v-1.48h-.76c0 1.947-.493 3.44-1.48 4.48-.96 1.04-2.266 1.56-3.92 1.56Zm-.6-11.08c0 .827.254 1.44.76 1.84.507.4 1.414.6 2.72.6 1.334 0 2.254-.2 2.76-.6.507-.4.76-1.013.76-1.84 0-.853-.253-1.467-.76-1.84-.48-.4-1.386-.6-2.72-.6-1.333 0-2.253.2-2.76.6-.506.373-.76.987-.76 1.84Zm24.209 19.32c-1.786 0-3.253-.293-4.4-.88-1.12-.587-2-1.36-2.64-2.32-.533-.827-.84-1.693-.92-2.6a4.777 4.777 0 0 1 .52-2.52c.4-.8 1-1.413 1.8-1.84.827-.453 1.654-.627 2.48-.52a4.37 4.37 0 0 1 2.28.92 4.937 4.937 0 0 1 1.6 2c.4.88.8 1.52 1.2 1.92.427.427.974.52 1.64.28.64-.213.867-.8.68-1.76-.16-.96-.506-2.093-1.04-3.4h-1.48c-1.146 0-2.293-.413-3.44-1.24-1.146-.827-2.106-2.133-2.88-3.92l-3.28-7.6c-.506-1.2-.56-2.307-.16-3.32.427-1.013 1.187-1.747 2.28-2.2 1.014-.453 2.014-.48 3-.08.987.4 1.76 1.253 2.32 2.56l3.04 7.08c.507 1.147 1.054 1.973 1.64 2.48.614.507 1.254.587 1.92.24.587-.32.907-.76.96-1.32.054-.587-.226-1.293-.84-2.12a22.426 22.426 0 0 0-.96-1.24 9.802 9.802 0 0 1-.96-1.56 5.074 5.074 0 0 1-.4-2.04c0-1.253.427-2.28 1.28-3.08.854-.827 1.974-1.24 3.36-1.24 1.254 0 2.254.4 3 1.2.774.8 1.16 1.84 1.16 3.12 0 .907-.106 1.907-.32 3a36.356 36.356 0 0 1-.72 3.04l-2.88 10.52c-.426 1.573-.986 3-1.68 4.28-.693 1.28-1.613 2.293-2.76 3.04-1.146.747-2.613 1.12-4.4 1.12Z"/>
</svg>
